PathFileType	4	(X/Y/Z)	../Python\running\Running03\task.trc
DataRate	CameraRate	NumFrames	NumMarkers	Units	OrigDataRate	OrigDataStartFrame	OrigNumFrames
200.000000	200.000000	5	30	mm	200.000000	49	198
Frame#	Time	C7			RBAK			CLAV			STRN			RASI			RPSI			LASI			PE01			RTH2			RTH3			RD5M			RTOE			LTH2			LTH3			LTB2			LTB3			LHEE			LTOE			LD5M			RHEE			RTH1			RTB2			LPSI			T10			RTB1			PE03			RTB3			PE02			LTH1			LTB1			
		X1	Y1	Z1	X2	Y2	Z2	X3	Y3	Z3	X4	Y4	Z4	X5	Y5	Z5	X6	Y6	Z6	X7	Y7	Z7	X8	Y8	Z8	X9	Y9	Z9	X10	Y10	Z10	X11	Y11	Z11	X12	Y12	Z12	X13	Y13	Z13	X14	Y14	Z14	X15	Y15	Z15	X16	Y16	Z16	X17	Y17	Z17	X18	Y18	Z18	X19	Y19	Z19	X20	Y20	Z20	X21	Y21	Z21	X22	Y22	Z22	X23	Y23	Z23	X24	Y24	Z24	X25	Y25	Z25	X26	Y26	Z26	X27	Y27	Z27	X28	Y28	Z28	X29	Y29	Z29	X30	Y30	Z30	

50	0.245	-531.861511230469	1324.48974609375	110.2049789428712	-589.9500732421877	1252.5	218.4776611328126	-419.6156921386721	1213.890869140625	127.0512847900391	-394.5244140625002	1020.5615234375	142.4586029052735	-462.3161621093752	828.4365844726567	254.0042877197267	-652.3611450195315	904.5571289062505	211.7108917236329	-479.6857604980471	827.1117553710942	25.00561904907228	-640.8372802734377	939.3904418945317	169.4249725341797	-372.8663635253907	512.5832519531252	275.4512939453126	-375.3110656738282	572.8338623046877	289.7500610351564	-563.0029907226565	85.23611450195315	266.904266357422	-526.2445068359377	70.88975524902347	222.4589996337892	-626.208679199219	530.9548950195315	1.226644158363343	-548.983581542969	552.9866943359377	-6.243862152099613	-778.8025512695317	228.2417907714845	25.57766151428224	-729.7761840820315	231.6425933837892	30.08253288269044	-907.1946411132817	98.88259887695318	82.56429290771487	-738.9299316406252	29.52254676818849	93.37998199462893	-776.414184570313	17.21108436584473	38.69814300537111	-671.7603149414065	164.6964721679688	176.3820037841797	-425.2805786132815	568.8988037109377	296.1311645507814	-487.9881896972659	314.6389465332032	264.5382080078126	-658.8878173828127	909.129272460938	126.7299270629883	-611.1182250976565	1041.156860351563	147.8944854736329	-427.4683227539065	320.0961914062501	255.7544250488282	-673.9314575195315	887.8549804687505	141.4101257324219	-486.3467407226565	266.3269348144532	248.1338500976564	-672.516540527344	884.8798217773442	191.9496765136719	-591.1708984375002	580.939392089844	-11.51380634307862	-731.3325195312502	290.2517395019532	10.73931407928467	
51	0.25	-515.4500732421877	1327.6728515625	111.188461303711	-574.8025512695315	1255.465576171875	217.3882293701173	-402.8544616699221	1218.115966796875	129.4795532226563	-377.1685791015626	1024.84130859375	143.9986114501954	-444.9088134765627	832.376342773438	253.849578857422	-635.1809692382815	908.2465820312505	210.8989105224611	-462.1118469238284	829.329956054688	24.93675422668458	-623.2401123046877	942.6277465820317	168.0616912841797	-352.0064697265626	519.0366210937502	274.6143188476564	-355.447723388672	579.1809082031252	289.218719482422	-523.7581176757815	80.02726745605472	269.1155090332032	-486.685729980469	67.29370880126956	224.4195556640626	-616.7480468750002	535.4812622070315	1.975229501724244	-538.7489013671877	555.4504394531252	-4.9287486076355	-775.1444702148442	234.1463623046876	26.37236785888673	-725.934509277344	237.2165985107423	30.29016494750978	-902.3505859375005	106.0866165161133	82.91261291503909	-738.4751586914065	29.21681976318361	93.28021240234378	-776.1406250000005	18.00293731689454	38.91699600219728	-636.6500244140627	154.4077301025391	179.1301727294922	-405.2937316894534	574.3759765625002	295.8504333496095	-460.2470397949221	313.6916503906251	265.8076782226564	-641.3178710937502	912.0358886718755	125.8690032958985	-593.7912597656252	1044.048950195313	146.0226135253907	-400.1781921386721	322.207977294922	256.8148803710939	-656.5366210937502	890.6065063476567	141.0940246582032	-456.3012390136721	265.4583129882814	249.6658782958986	-655.0623779296877	888.6354370117192	191.7167968750001	-580.212585449219	584.5960083007815	-10.59914779663086	-727.4813232421877	295.9883117675782	11.57662963867188	
52	0.255	-498.9866333007815	1330.9189453125	112.2124023437501	-559.5347900390627	1258.479248046875	216.3495941162111	-386.0856933593752	1222.426879882813	131.8962707519532	-359.7669372558595	1029.18701171875	145.5213623046876	-427.402770996094	836.3670043945317	253.6268463134767	-617.7849121093752	911.9852905273442	210.1524810791017	-444.3724060058596	831.7672729492192	24.86277008056642	-605.4636840820315	945.9069213867192	166.7684631347657	-331.681610107422	525.2156372070315	273.7130126953126	-335.9361572265626	585.2659912109377	288.552703857422	-484.3143615722659	75.0016784667969	271.1253967285157	-447.0499267578127	63.89014053344729	226.1289978027345	-606.9542236328127	540.341247558594	2.846923589706422	-528.2299804687502	558.2051391601565	-3.581141710281374	-771.005981445313	240.3974456787111	27.28596687316896	-721.6204223632815	243.1932525634767	30.48137283325197	-896.5393676757817	113.5618209838868	83.41764068603518	-738.0275878906252	28.84428024291994	93.19658660888675	-775.6863403320317	18.97701835632325	39.17905426025392	-601.005554199219	144.5170135498047	181.8345031738282	-385.6766357421877	579.7475585937502	295.4139404296876	-432.5743713378909	312.7188415527345	267.1050720214845	-623.6277465820315	915.039428710938	125.0667953491212	-576.3994140625002	1047.00830078125	144.1343536376954	-373.1160583496095	324.3041992187501	257.8910522460939	-639.0333251953127	893.4525756835942	140.8622741699219	-426.2853088378909	264.7061462402345	251.2149963378907	-637.403991699219	892.4440917968755	191.5465850830079	-568.9776611328127	588.5210571289065	-9.632735252380375	-723.2972412109377	302.1749877929689	12.56465816497803	
53	0.26	-482.4659729003909	1334.20068359375	113.2743148803712	-544.1416015625002	1261.511108398438	215.3691253662111	-369.3123474121095	1226.786254882813	134.2920532226563	-342.3279418945314	1033.56787109375	147.0267944335938	-409.8080139160159	840.3776245117192	253.3356781005861	-600.1749267578127	915.7339477539067	209.4614562988282	-426.4891357421877	834.3685913085942	24.78328895568849	-587.5139770507815	949.2055664062505	165.5464477539063	-311.9093322753907	531.0481567382815	272.7623901367189	-316.7779235839845	591.0267333984377	287.7487182617189	-444.716003417969	70.1626892089844	272.9219665527345	-407.3787841796877	60.67211914062503	227.5772247314454	-596.8297119140627	545.5058593750002	3.850867271423342	-517.4508056640627	561.218933105469	-2.240737199783326	-766.3088378906252	246.9201049804689	28.32732391357423	-716.768737792969	249.5132751464845	30.6606903076172	-889.7023315429692	121.2428207397462	84.09300231933597	-737.5643310546877	28.42121887207033	93.14295959472659	-774.9955444335942	20.16224479675294	39.50942993164064	-564.864196777344	135.108139038086	184.4767303466797	-366.4381408691407	584.9642333984377	294.8157958984376	-404.9739990234377	311.7172851562501	268.4300842285157	-605.823913574219	918.1220092773442	124.3172836303712	-558.9501953125002	1050.011962890625	142.2452392578126	-346.2968750000001	326.3665771484376	258.9755249023439	-621.426696777344	896.382690429688	140.6957397460938	-396.3175354003909	264.0742492675782	252.7720336914064	-619.5535278320315	896.2789916992192	191.4173431396485	-557.4785766601565	592.6807861328127	-8.622880935668949	-718.7194824218752	308.7502746582032	13.72841930389405	
54	0.265	-465.8844909667971	1337.490234375	114.3714599609376	-528.620300292969	1264.530517578125	214.4528198242189	-352.5374145507814	1231.15673828125	136.658187866211	-324.8592529296876	1037.95458984375	148.5144653320313	-392.1360473632815	844.3777465820317	252.9783935546876	-582.3610839843752	919.4595336914067	208.8135375976564	-408.4864501953127	837.072143554688	24.70016670227052	-569.3994750976565	952.503784179688	164.3928222656251	-292.7038574218751	536.4714965820315	271.7817687988282	-297.9803466796876	596.407653808594	286.8098754882814	-405.0096130371096	65.52610778808597	274.4967651367189	-367.7124328613282	57.64712142944339	228.7624053955079	-586.3807373046877	550.9400024414065	4.994636535644533	-506.4420166015627	564.4580078125002	-0.9484627842903142	-760.978454589844	253.6296691894532	29.49242782592775	-711.3186645507815	256.1079101562501	30.83581733703615	-881.817504882813	129.0616607666016	84.93656158447268	-737.0332031250002	27.98733520507814	93.13323974609378	-773.9937133789067	21.59250259399415	39.9292678833008	-528.2753906250002	126.260726928711	187.0348205566407	-347.5900878906251	589.9780273437502	294.056854248047	-377.4570617675782	310.6897277832032	269.7792968750001	-587.913269042969	921.2651367187505	123.6119384765626	-541.4517822265627	1053.036987304688	140.3708801269532	-319.7398376464845	328.3826904296876	260.0601501464845	-603.7211914062502	899.3850097656255	140.5729980468751	-366.4234619140626	263.5693664550782	254.3264312744142	-601.5269775390627	900.1168823242192	191.3067016601563	-545.730407714844	597.0385742187502	-7.57839393615723	-713.682312011719	315.6392822265626	15.08453655242921	
